<svg xmlns="http://www.w3.org/2000/svg" viewBox="0 13.850000381469727 274.45001220703125 38.650001525878906" data-asc="0.89" width="274.45001220703125" height="38.650001525878906"><defs/><g fill="#000000"><g transform="translate(0, 0)"><path d="M43.75 52.50Q43.25 52.50 42.85 52.13Q42.45 51.75 42.45 51.20Q42.45 50.70 43.30 49.08Q44.15 47.45 45.55 45Q46.95 42.55 48.63 39.67Q50.30 36.80 51.98 33.77Q53.65 30.75 55.05 28Q56.20 25.70 57.02 23.40Q57.85 21.10 57.85 19.25Q57.85 17.20 56.55 15.95Q55.25 14.70 52 14.70Q47.90 14.70 43.20 15.63Q38.50 16.55 33.65 18.20Q28.80 19.85 24.18 22.02Q19.55 24.20 15.50 26.72Q11.45 29.25 8.38 31.92Q5.30 34.60 3.55 37.25Q1.80 39.90 1.80 42.30Q1.80 44.45 2.95 45.20Q4.10 45.95 5.65 45.95Q6.80 45.95 7.98 45.70Q9.15 45.45 10.10 45.25Q10.25 45.20 10.50 45.20Q11.20 45.20 11.20 45.50Q11.20 45.70 10.80 45.85Q9.65 46.20 8.40 46.42Q7.15 46.65 5.95 46.65Q3.50 46.65 1.75 45.55Q0 44.45 0 41.70Q0 39.25 1.75 36.60Q3.50 33.95 6.60 31.23Q9.70 28.50 13.80 25.97Q17.90 23.45 22.68 21.25Q27.45 19.05 32.52 17.38Q37.60 15.70 42.63 14.77Q47.65 13.85 52.25 13.85Q56.60 13.85 58.38 15.32Q60.15 16.80 60.15 19.30Q60.15 21.30 59.25 23.75Q58.35 26.20 57 28.85Q55.95 30.95 54.70 33.23Q53.45 35.50 52.30 37.55Q51.15 39.60 50.35 41.05Q49.55 42.50 49.40 43Q50.25 41.85 51.65 39.98Q53.05 38.10 54.85 35.85Q56.65 33.60 58.68 31.32Q60.70 29.05 62.75 27.10Q64.80 25.15 66.78 23.88Q68.75 22.60 70.40 22.40Q70.65 22.35 70.90 22.35Q71.15 22.35 71.35 22.35Q72.50 22.35 73.18 22.82Q73.85 23.30 73.85 24.20Q73.85 24.90 73.30 26Q72.85 26.85 72.00 28.52Q71.15 30.20 70.25 32.13Q69.35 34.05 68.75 35.67Q68.15 37.30 68.15 38.05Q68.40 37.90 69.38 37.02Q70.35 36.15 71.58 35.02Q72.80 33.90 73.83 32.98Q74.85 32.05 75.25 31.80Q75.80 31.40 76.35 31.40Q77.40 31.40 77.85 32.50Q78.20 33.30 78.48 34.70Q78.75 36.10 79.00 37.63Q79.25 39.15 79.55 40.42Q79.85 41.70 80.25 42.25Q80.60 42.75 81.18 43Q81.75 43.25 82.40 43.25Q83.10 43.25 83.83 43.05Q84.55 42.85 85.25 42.50Q87.35 41.45 89.58 39.88Q91.80 38.30 93.85 36.60L97.00 34Q97.40 33.70 97.50 33.70Q97.80 33.70 97.03 34.83Q96.25 35.95 94.50 37.40Q92.35 39.15 90.00 40.83Q87.65 42.50 85.40 43.50Q83.85 44.20 82.68 44.52Q81.50 44.85 80.65 44.85Q79.05 44.85 78.28 43.83Q77.50 42.80 77.15 41.02Q76.80 39.25 76.40 37.05Q76.20 35.60 75.93 34.60Q75.65 33.60 75.00 33.60Q74.65 33.60 74.15 33.95Q73.45 34.40 72.33 35.42Q71.20 36.45 70.00 37.63Q68.80 38.80 67.93 39.75Q67.05 40.70 66.80 41.05Q66.40 41.60 66.00 41.60Q65.30 41.60 65.30 40.50Q65.30 40.25 65.68 39.17Q66.05 38.10 66.65 36.50Q67.25 34.90 67.95 33.15Q68.65 31.40 69.35 29.75Q70.05 28.10 70.55 27Q70.70 26.70 70.83 26.18Q70.95 25.65 70.95 25.15Q70.95 24.60 70.73 24.20Q70.50 23.80 69.95 23.80Q69.40 23.80 68.45 24.30Q65.95 25.65 63.27 28.10Q60.60 30.55 57.98 33.60Q55.35 36.65 52.90 39.92Q50.45 43.20 48.35 46.33Q46.25 49.45 44.70 51.95Q44.35 52.50 43.75 52.50ZM107.65 45Q105.55 45 104.75 44Q103.95 43 103.95 41.55Q103.95 40.50 104.30 39.35Q104.65 38.20 105.05 37.20Q104.35 37.95 103.15 39.20Q101.95 40.45 100.50 41.73Q99.05 43 97.53 43.88Q96.00 44.75 94.70 44.75Q94.05 44.75 93.45 44.45Q92.85 44.15 92.40 43.50Q91.90 42.80 91.90 41.85Q91.90 40.25 93.08 38.40Q94.25 36.55 95.95 34.85Q96.10 34.65 96.53 34.27Q96.95 33.90 97.25 33.70Q97.05 33.55 97.45 32.95Q97.85 32.35 98.53 31.85Q99.20 31.35 99.70 31.65Q100.15 31.90 100.48 32.17Q100.80 32.45 100.80 32.75Q100.80 33.05 100.35 33.50L99.30 34.50Q98.00 35.75 96.65 37.13Q95.30 38.50 94.35 39.77Q93.40 41.05 93.25 42Q93.20 42.20 93.20 42.35Q93.20 42.50 93.20 42.65Q93.20 44.10 94.30 44.10Q95.10 44.10 96.18 43.48Q97.25 42.85 98.23 42.10Q99.20 41.35 99.60 41Q101.20 39.65 102.95 38.13Q104.70 36.60 106.30 35.20Q106.55 35.05 106.85 35.05Q107.45 35.05 107.80 35.40Q107.95 35.55 107.95 35.80Q107.95 36.40 107.40 37.45Q106.85 38.50 106.28 39.70Q105.70 40.90 105.55 41.95Q105.50 42.15 105.50 42.30Q105.50 42.45 105.50 42.60Q105.50 43.55 106.03 43.90Q106.55 44.25 107.35 44.25Q108.35 44.25 109.43 43.92Q110.50 43.60 111.15 43.35Q113.80 42.35 116.48 40.52Q119.15 38.70 121.35 37Q121.90 36.60 122.40 36.23Q122.90 35.85 123.40 35.40Q123.80 35.10 123.90 35.10Q123.95 35.10 123.95 35.15Q123.95 35.25 123.80 35.50Q123.65 35.75 123.55 35.95Q122.95 36.85 121.23 38.35Q119.50 39.85 117.23 41.35Q114.95 42.85 112.60 43.85Q111.35 44.35 110.15 44.67Q108.95 45 107.65 45ZM121.10 45.10Q120.60 45.10 120.33 44.60Q120.05 44.10 120.05 43.65Q120.05 41.80 121.70 38.60Q123.45 35.10 126.10 31.50Q128.75 27.90 131.95 24.67Q135.15 21.45 138.45 19.10Q138.70 18.90 139.03 18.75Q139.35 18.60 139.70 18.60Q140.40 18.60 140.95 19.55Q141.50 20.50 141.45 21.15Q141.45 21.30 141.33 21.63Q141.20 21.95 141 21.95Q140.95 21.95 140.85 21.75Q140.75 21.55 140.70 21.50Q140.40 21.10 139.95 21.10Q139.80 21.10 139.70 21.15Q137.10 22.30 134.73 24.32Q132.35 26.35 130.25 28.82Q128.15 31.30 126.50 33.80Q124.85 36.30 123.68 38.45Q122.50 40.60 121.95 41.95Q123.15 40.35 124.93 38.75Q126.70 37.15 128.85 35.80Q131 34.45 133.28 33.63Q135.55 32.80 137.65 32.80Q139.55 32.80 140.45 33.60Q141.35 34.40 141.50 35.20Q143.45 34.85 145.33 34.67Q147.20 34.50 148.65 34.40Q150.10 34.30 150.70 34.30Q150.80 34.30 151.08 34.40Q151.35 34.50 151.35 34.60Q151.35 34.75 150.70 34.75Q148.25 34.80 145.93 35.10Q143.60 35.40 141.55 35.85Q141.55 37.70 140.18 39.27Q138.80 40.85 136.73 42.05Q134.65 43.25 132.45 43.92Q130.25 44.60 128.55 44.60Q127.35 44.60 126.65 44.13Q125.95 43.65 125.95 42.85Q125.95 41.95 126.95 40.80Q128 39.65 131.35 38.05Q134.70 36.45 139.90 35.45Q139.85 34.30 139.13 33.92Q138.40 33.55 137.70 33.55Q136.70 33.55 135.50 33.85Q134.30 34.15 133.30 34.55Q131.55 35.25 129.48 36.60Q127.40 37.95 125.58 39.63Q123.75 41.30 122.75 42.90L121.60 44.75Q121.45 45.10 121.10 45.10M128.85 43.55Q129.95 43.55 131.45 43.10Q132.95 42.65 134.35 41.80Q136.55 40.35 137.98 38.77Q139.40 37.20 139.75 36.25Q135.70 37.20 132.78 38.48Q129.85 39.75 128.55 40.75Q127.10 41.90 127.10 42.65Q127.10 43.10 127.58 43.33Q128.05 43.55 128.85 43.55ZM164.80 45.05Q163.30 45.05 162.18 44.30Q161.05 43.55 161.05 41.50Q161.10 40.45 161.43 39.33Q161.75 38.20 162.15 37.20Q161.50 37.95 160.20 39.20Q158.90 40.45 157.28 41.73Q155.65 43 153.95 43.90Q152.25 44.80 150.75 44.80Q149.25 44.80 148.30 43.70Q147.65 43 147.65 41.80Q147.65 40.40 148.58 38.75Q149.50 37.10 151.03 35.52Q152.55 33.95 154.33 32.70Q156.10 31.45 157.80 30.90Q160.15 30.15 161.50 30.15Q162.95 30.15 163.63 30.92Q164.30 31.70 164.50 33.15L164.50 33.30Q164.50 33.65 164.33 33.88Q164.15 34.10 164.00 34.10Q163.75 34.10 163.75 33.70Q163.75 33.45 163.68 32.98Q163.60 32.50 163.23 32.08Q162.85 31.65 161.95 31.65Q160.70 31.65 159.10 32.35Q157.50 33.05 155.85 34.23Q154.20 35.40 152.75 36.77Q151.30 38.15 150.35 39.50Q149.40 40.85 149.25 41.90Q149.20 42.05 149.20 42.20Q149.20 42.35 149.20 42.45Q149.20 43.35 149.58 43.70Q149.95 44.05 150.55 44.05Q151.45 44.05 152.63 43.50Q153.80 42.95 154.80 42.25Q155.80 41.55 156.20 41.20Q157.80 39.85 159.80 38.23Q161.80 36.60 163.35 35.20Q163.60 35.05 163.90 35.05Q164.60 35.05 165.05 35.40Q165.20 35.55 165.20 35.80Q165.20 36.05 165.08 36.42Q164.95 36.80 164.75 37.25Q163.90 39 163.35 40.40Q162.80 41.80 162.80 42.75Q162.80 44.25 164.45 44.25Q165.70 44.25 168.15 43.35Q170.80 42.35 173.45 40.60Q176.10 38.85 178.25 37.05Q178.80 36.60 179.25 36.30Q179.70 36 180.20 35.50Q180.30 35.45 180.45 35.45Q180.60 35.45 180.60 35.60Q180.60 35.75 180.40 36Q180.10 36.40 178.95 37.48Q177.80 38.55 176.10 39.88Q174.40 41.20 172.43 42.42Q170.45 43.65 168.45 44.35Q167.70 44.60 166.73 44.83Q165.75 45.05 164.80 45.05ZM182.40 47.25Q180.75 47.25 179.35 45.92Q177.95 44.60 177.00 42.40Q176.65 41.70 176.48 41.08Q176.30 40.45 176.10 39.95Q174.65 41.05 173.33 41.90Q172.00 42.75 171.10 43.15Q170.85 43.15 170.85 42.80Q170.85 42.60 171.00 42.35Q171.15 42.10 171.50 41.90Q172.40 41.35 173.40 40.70Q174.40 40.05 175.40 39.35Q175.00 39.10 174.65 38.83Q174.30 38.55 174.10 38.20Q174.00 38.05 174.00 37.70Q174.00 37 174.48 36.27Q174.95 35.55 175.40 35.55Q175.85 35.55 176.00 36.30L176.30 37.65L176.40 37.75Q176.50 37.90 176.58 38.05Q176.65 38.20 176.75 38.35Q179.10 36.60 181.33 34.65Q183.55 32.70 185.20 31Q185.20 31 185.23 30.98Q185.25 30.95 185.25 30.90Q185.70 29.40 186.98 28.02Q188.25 26.65 189.95 26.65Q190.60 26.65 191.15 26.85Q191.60 27.05 191.60 27.50Q191.60 27.95 191.18 28.32Q190.75 28.70 190.00 28.55Q189.80 28.50 189.65 28.50Q189.50 28.50 189.35 28.50Q188.65 28.50 188.15 28.77Q187.65 29.05 187.15 29.55Q186.25 30.50 186.00 32.27Q185.75 34.05 185.75 36.15Q185.75 37.10 185.78 38.05Q185.80 39 185.80 39.95Q185.80 40.95 185.75 41.92Q185.70 42.90 185.55 43.75Q185.80 43.75 186.08 43.77Q186.35 43.80 186.65 43.80Q188.25 43.80 189.88 43.50Q191.50 43.20 192.90 42.60Q194.80 41.75 196.63 40.58Q198.45 39.40 200.40 38Q201.00 37.55 202.05 36.63Q203.10 35.70 203.70 35.25Q203.80 35.20 203.90 35.20Q204.15 35.20 204.15 35.45Q204.15 35.65 203.95 35.85Q201.85 37.90 199.05 40.10Q196.25 42.30 192.90 43.75Q191.05 44.40 189.10 44.73Q187.15 45.05 185.25 44.95Q184.90 46 184.23 46.63Q183.55 47.25 182.40 47.25M183.00 43.30Q183.50 42 183.78 40.15Q184.05 38.30 184.30 36.23Q184.55 34.15 184.90 32.35Q183.35 33.85 181.30 35.65Q179.25 37.45 177.20 39.10Q178.30 40.55 179.73 41.65Q181.15 42.75 183.00 43.30M181.05 45.15Q181.80 45.15 182.45 44.40Q180.90 43.85 179.60 42.90Q178.30 41.95 177.25 40.40Q177.95 42.15 178.93 43.65Q179.90 45.15 181.05 45.15ZM218.50 45.35Q216.45 45.35 215.20 44.38Q213.95 43.40 213.40 41.77Q212.85 40.15 212.85 38.25Q212.85 37 213.05 35.73Q213.25 34.45 213.60 33.20Q212.75 34.10 211.35 35.35Q209.95 36.60 208.35 37.95Q206.75 39.30 205.28 40.52Q203.80 41.75 202.75 42.60Q201.70 43.45 201.40 43.65Q201.60 44 201.60 44.30Q201.60 45 200.80 45Q200.45 45 200.05 44.75Q199.65 44.50 199.40 43.95Q199.25 43.55 199.25 43.05Q199.25 41.70 200.20 39.50Q201.15 37.30 202.40 34.95Q202.25 35 202.05 35Q201.65 35 201.65 34.80Q201.65 34.60 201.95 34.40Q203.05 33.75 203.30 33.25Q204.35 31.05 205.85 28.70Q207.35 26.35 209.13 24.13Q210.90 21.90 212.80 20.13Q214.70 18.35 216.55 17.30Q218.40 16.25 220.05 16.25Q221.10 16.25 221.53 16.70Q221.95 17.15 221.95 17.85Q221.95 18.40 221.73 19Q221.50 19.60 221.20 20.10Q219.70 22.80 216.98 25.38Q214.25 27.95 210.93 30.23Q207.60 32.50 204.25 34.25Q203.35 36 202.60 37.70Q201.85 39.40 201.45 40.70Q201.05 42 201.20 42.60Q201.55 42.40 202.68 41.45Q203.80 40.50 205.35 39.13Q206.90 37.75 208.58 36.25Q210.25 34.75 211.78 33.40Q213.30 32.05 214.30 31.20Q214.90 29.70 215.50 29.70Q216.10 29.70 217.05 31.20Q217.15 31.40 217.15 31.55Q217.15 31.85 217.05 32.17Q216.95 32.50 216.85 32.65Q215.80 34.25 215.25 36Q214.70 37.75 214.70 39.35Q214.70 41.45 215.75 42.90Q216.80 44.35 219.05 44.35Q220.20 44.35 221.60 43.95Q223.00 43.55 224.70 42.60Q226.90 41.55 229.15 40.05Q231.40 38.55 233.25 37.05Q233.80 36.60 234.28 36.30Q234.75 36 235.25 35.50Q235.35 35.45 235.50 35.45Q235.65 35.45 235.65 35.60Q235.65 35.75 235.45 36Q235.15 36.35 234.10 37.30Q233.05 38.25 231.53 39.45Q230.00 40.65 228.23 41.80Q226.45 42.95 224.65 43.80Q223.65 44.30 221.93 44.83Q220.20 45.35 218.50 45.35M204.85 33.10Q207.00 31.80 209.38 30.20Q211.75 28.60 214.03 26.68Q216.30 24.75 218.15 22.52Q220.00 20.30 221.05 17.85Q221.05 17.20 220.45 17.20Q219.85 17.20 218.80 17.80Q217.75 18.40 216.53 19.32Q215.30 20.25 214.15 21.27Q213.00 22.30 212.25 23.15Q211.05 24.40 209.78 25.82Q208.50 27.25 207.20 29.15Q206.65 30 206.05 31.02Q205.45 32.05 204.85 33.10ZM241.40 29.35Q240.50 29.35 240.50 28.35Q240.50 27.95 240.70 27.55Q240.85 27.15 241.70 26.88Q242.55 26.60 243.53 26.47Q244.50 26.35 245.05 26.35Q245.50 26.35 245.50 26.40Q245.50 26.50 245.00 26.70Q244.50 26.90 243.95 27.20Q243.40 27.50 243.20 27.90Q242.95 28.55 242.43 28.95Q241.90 29.35 241.40 29.35M234.60 44.90Q233.20 44.90 232.15 44.38Q231.10 43.85 231.10 42.45Q231.10 40.90 231.93 39.45Q232.75 38 233.80 36.83Q234.85 35.65 235.55 35.05Q235.10 34.95 235.70 34.15Q236.30 33.35 237.45 32.85Q237.75 32.75 238.00 32.75Q238.55 32.75 239.13 33Q239.70 33.25 239.70 33.70Q239.70 33.95 239.50 34.20Q239.30 34.45 239.10 34.60Q238.30 35.20 236.88 36.48Q235.45 37.75 234.45 39Q232.60 41.35 232.60 42.65Q232.60 44.05 234.85 44.05Q236.70 44.05 238.48 43.48Q240.25 42.90 241.80 42.10Q244.25 40.85 246.35 39.08Q248.45 37.30 250.70 35.50Q250.80 35.45 250.95 35.45Q251.10 35.45 251.10 35.60Q251.10 35.75 250.90 36Q250.60 36.40 249.65 37.33Q248.70 38.25 247.28 39.40Q245.85 40.55 244.13 41.67Q242.40 42.80 240.60 43.60Q239.65 44 237.93 44.45Q236.20 44.90 234.60 44.90ZM257.65 45.15Q256.00 45.15 254.73 44.52Q253.45 43.90 253.45 42.20Q253.45 40.80 254.13 39.52Q254.80 38.25 255.75 37.20Q256.70 36.15 257.55 35.38Q258.40 34.60 258.75 34.25Q257.50 34.75 256.40 34.75Q255.70 34.75 255.05 34.55Q254.40 34.35 253.90 33.90L253.55 34.40Q253.20 34.90 252.33 35.80Q251.45 36.70 250.60 37.40Q248.45 39.20 246.08 40.80Q243.70 42.40 241.40 43.45Q239.10 44.50 237.10 44.65Q236.90 44.65 236.65 44.58Q236.40 44.50 236.40 44.40Q236.40 44.25 237.30 44.05Q239.05 43.70 241.18 42.58Q243.30 41.45 245.58 39.88Q247.85 38.30 249.95 36.60Q250.80 35.90 251.78 35Q252.75 34.10 253.50 33.40Q252.95 32.65 252.95 31.60Q252.95 30.45 253.58 29.27Q254.20 28.10 255.20 27.10Q256.20 26.10 257.33 25.47Q258.45 24.85 259.40 24.85Q260.20 24.85 260.20 25.50Q260.20 25.95 259.80 26.25Q259.45 26.55 258.63 27.38Q257.80 28.20 256.85 29.25Q255.90 30.30 255.15 31.27Q254.40 32.25 254.20 32.85Q254.40 33.20 254.75 33.48Q255.10 33.75 256.10 33.75Q256.95 33.75 257.88 33.42Q258.80 33.10 259.53 32.80Q260.25 32.50 260.50 32.50Q261.05 32.50 261.63 32.83Q262.20 33.15 262.20 33.70Q262.20 34.30 261.85 34.60Q261.05 35.20 259.68 36.30Q258.30 37.40 257.10 38.65Q255.85 39.90 255.25 40.95Q254.65 42 254.65 42.70Q254.65 43.50 255.35 43.95Q256.05 44.40 257.30 44.40Q259.20 44.40 262.05 43.35Q262.40 43.25 262.75 43.08Q263.10 42.90 263.45 42.75Q266.35 41.45 268.95 39.55Q271.55 37.65 274.10 35.50Q274.20 35.45 274.30 35.45Q274.45 35.45 274.45 35.60Q274.45 35.75 274.30 36Q274.00 36.40 272.85 37.48Q271.70 38.55 270.00 39.88Q268.30 41.20 266.33 42.42Q264.35 43.65 262.35 44.35Q261.50 44.65 260.23 44.90Q258.95 45.15 257.65 45.15Z"/></g></g></svg>